{
	"patcher" : 	{
		"fileversion" : 1,
		"appversion" : 		{
			"major" : 5,
			"minor" : 1,
			"revision" : 9
		}
,
		"rect" : [ 477.0, 218.0, 739.0, 475.0 ],
		"bglocked" : 0,
		"defrect" : [ 477.0, 218.0, 739.0, 475.0 ],
		"openrect" : [ 0.0, 0.0, 0.0, 0.0 ],
		"openinpresentation" : 0,
		"default_fontsize" : 12.0,
		"default_fontface" : 0,
		"default_fontname" : "Arial",
		"gridonopen" : 0,
		"gridsize" : [ 15.0, 15.0 ],
		"gridsnaponopen" : 0,
		"toolbarvisible" : 1,
		"boxanimatetime" : 200,
		"imprint" : 0,
		"enablehscroll" : 1,
		"enablevscroll" : 1,
		"devicewidth" : 0.0,
		"boxes" : [ 			{
				"box" : 				{
					"maxclass" : "newobj",
					"text" : "sprintf right%iImag",
					"fontname" : "Arial",
					"numoutlets" : 1,
					"id" : "obj-12",
					"outlettype" : [ "" ],
					"patching_rect" : [ 540.0, 105.0, 110.0, 20.0 ],
					"fontsize" : 12.0,
					"numinlets" : 1
				}

			}
, 			{
				"box" : 				{
					"maxclass" : "newobj",
					"text" : "sprintf right%iReal",
					"fontname" : "Arial",
					"numoutlets" : 1,
					"id" : "obj-11",
					"outlettype" : [ "" ],
					"patching_rect" : [ 435.0, 105.0, 108.0, 20.0 ],
					"fontsize" : 12.0,
					"numinlets" : 1
				}

			}
, 			{
				"box" : 				{
					"maxclass" : "newobj",
					"text" : "prepend set",
					"fontname" : "Arial",
					"numoutlets" : 1,
					"id" : "obj-37",
					"outlettype" : [ "" ],
					"patching_rect" : [ 540.0, 135.0, 74.0, 20.0 ],
					"fontsize" : 12.0,
					"numinlets" : 1
				}

			}
, 			{
				"box" : 				{
					"maxclass" : "newobj",
					"text" : "prepend set",
					"fontname" : "Arial",
					"numoutlets" : 1,
					"id" : "obj-36",
					"outlettype" : [ "" ],
					"patching_rect" : [ 435.0, 135.0, 74.0, 20.0 ],
					"fontsize" : 12.0,
					"numinlets" : 1
				}

			}
, 			{
				"box" : 				{
					"maxclass" : "newobj",
					"text" : "in 2",
					"fontname" : "Arial",
					"numoutlets" : 1,
					"id" : "obj-26",
					"outlettype" : [ "" ],
					"patching_rect" : [ 480.0, 30.0, 30.0, 20.0 ],
					"fontsize" : 12.0,
					"numinlets" : 1,
					"saved_object_attributes" : 					{

					}

				}

			}
, 			{
				"box" : 				{
					"maxclass" : "newobj",
					"text" : "+~",
					"fontname" : "Arial",
					"numoutlets" : 1,
					"id" : "obj-10",
					"outlettype" : [ "signal" ],
					"patching_rect" : [ 240.0, 225.0, 32.5, 20.0 ],
					"fontsize" : 12.0,
					"numinlets" : 2
				}

			}
, 			{
				"box" : 				{
					"maxclass" : "newobj",
					"text" : "-~",
					"fontname" : "Arial",
					"numoutlets" : 1,
					"id" : "obj-9",
					"outlettype" : [ "signal" ],
					"patching_rect" : [ 90.0, 225.0, 32.5, 20.0 ],
					"fontsize" : 12.0,
					"numinlets" : 2
				}

			}
, 			{
				"box" : 				{
					"maxclass" : "newobj",
					"text" : "*~",
					"fontname" : "Arial",
					"numoutlets" : 1,
					"id" : "obj-8",
					"outlettype" : [ "signal" ],
					"patching_rect" : [ 270.0, 165.0, 32.5, 20.0 ],
					"fontsize" : 12.0,
					"numinlets" : 2
				}

			}
, 			{
				"box" : 				{
					"maxclass" : "newobj",
					"text" : "*~",
					"fontname" : "Arial",
					"numoutlets" : 1,
					"id" : "obj-7",
					"outlettype" : [ "signal" ],
					"patching_rect" : [ 225.0, 165.0, 32.5, 20.0 ],
					"fontsize" : 12.0,
					"numinlets" : 2
				}

			}
, 			{
				"box" : 				{
					"maxclass" : "newobj",
					"text" : "*~",
					"fontname" : "Arial",
					"numoutlets" : 1,
					"id" : "obj-6",
					"outlettype" : [ "signal" ],
					"patching_rect" : [ 120.0, 165.0, 32.5, 20.0 ],
					"fontsize" : 12.0,
					"numinlets" : 2
				}

			}
, 			{
				"box" : 				{
					"maxclass" : "newobj",
					"text" : "*~",
					"fontname" : "Arial",
					"numoutlets" : 1,
					"id" : "obj-5",
					"outlettype" : [ "signal" ],
					"patching_rect" : [ 75.0, 165.0, 32.5, 20.0 ],
					"fontsize" : 12.0,
					"numinlets" : 2
				}

			}
, 			{
				"box" : 				{
					"maxclass" : "newobj",
					"text" : "index~ dummy",
					"fontname" : "Arial",
					"numoutlets" : 1,
					"id" : "obj-4",
					"outlettype" : [ "signal" ],
					"patching_rect" : [ 300.0, 90.0, 89.0, 20.0 ],
					"fontsize" : 12.0,
					"numinlets" : 2
				}

			}
, 			{
				"box" : 				{
					"maxclass" : "newobj",
					"text" : "index~ dummy",
					"fontname" : "Arial",
					"numoutlets" : 1,
					"id" : "obj-3",
					"outlettype" : [ "signal" ],
					"patching_rect" : [ 180.0, 90.0, 89.0, 20.0 ],
					"fontsize" : 12.0,
					"numinlets" : 2
				}

			}
, 			{
				"box" : 				{
					"maxclass" : "newobj",
					"text" : "fftout~ 1",
					"fontname" : "Arial",
					"numoutlets" : 0,
					"id" : "obj-2",
					"patching_rect" : [ 90.0, 345.0, 54.0, 20.0 ],
					"fontsize" : 12.0,
					"numinlets" : 2
				}

			}
, 			{
				"box" : 				{
					"maxclass" : "newobj",
					"text" : "fftin~ 1",
					"fontname" : "Arial",
					"numoutlets" : 3,
					"id" : "obj-1",
					"outlettype" : [ "signal", "signal", "signal" ],
					"patching_rect" : [ 90.0, 45.0, 47.0, 20.0 ],
					"fontsize" : 12.0,
					"numinlets" : 1
				}

			}
 ],
		"lines" : [ 			{
				"patchline" : 				{
					"source" : [ "obj-12", 0 ],
					"destination" : [ "obj-37", 0 ],
					"hidden" : 0,
					"midpoints" : [  ]
				}

			}
, 			{
				"patchline" : 				{
					"source" : [ "obj-26", 0 ],
					"destination" : [ "obj-12", 0 ],
					"hidden" : 0,
					"midpoints" : [  ]
				}

			}
, 			{
				"patchline" : 				{
					"source" : [ "obj-11", 0 ],
					"destination" : [ "obj-36", 0 ],
					"hidden" : 0,
					"midpoints" : [  ]
				}

			}
, 			{
				"patchline" : 				{
					"source" : [ "obj-26", 0 ],
					"destination" : [ "obj-11", 0 ],
					"hidden" : 0,
					"midpoints" : [  ]
				}

			}
, 			{
				"patchline" : 				{
					"source" : [ "obj-1", 2 ],
					"destination" : [ "obj-4", 0 ],
					"hidden" : 0,
					"midpoints" : [  ]
				}

			}
, 			{
				"patchline" : 				{
					"source" : [ "obj-1", 2 ],
					"destination" : [ "obj-3", 0 ],
					"hidden" : 0,
					"midpoints" : [  ]
				}

			}
, 			{
				"patchline" : 				{
					"source" : [ "obj-1", 0 ],
					"destination" : [ "obj-5", 0 ],
					"hidden" : 0,
					"midpoints" : [ 99.5, 150.0, 84.5, 150.0 ]
				}

			}
, 			{
				"patchline" : 				{
					"source" : [ "obj-1", 1 ],
					"destination" : [ "obj-6", 0 ],
					"hidden" : 0,
					"midpoints" : [ 113.5, 128.0, 129.5, 128.0 ]
				}

			}
, 			{
				"patchline" : 				{
					"source" : [ "obj-5", 0 ],
					"destination" : [ "obj-9", 0 ],
					"hidden" : 0,
					"midpoints" : [ 84.5, 204.5, 99.5, 204.5 ]
				}

			}
, 			{
				"patchline" : 				{
					"source" : [ "obj-6", 0 ],
					"destination" : [ "obj-9", 1 ],
					"hidden" : 0,
					"midpoints" : [ 129.5, 204.5, 113.0, 204.5 ]
				}

			}
, 			{
				"patchline" : 				{
					"source" : [ "obj-9", 0 ],
					"destination" : [ "obj-2", 0 ],
					"hidden" : 0,
					"midpoints" : [  ]
				}

			}
, 			{
				"patchline" : 				{
					"source" : [ "obj-1", 1 ],
					"destination" : [ "obj-7", 0 ],
					"hidden" : 0,
					"midpoints" : [ 113.5, 114.5, 234.5, 114.5 ]
				}

			}
, 			{
				"patchline" : 				{
					"source" : [ "obj-1", 0 ],
					"destination" : [ "obj-8", 0 ],
					"hidden" : 0,
					"midpoints" : [ 99.5, 114.5, 279.5, 114.5 ]
				}

			}
, 			{
				"patchline" : 				{
					"source" : [ "obj-7", 0 ],
					"destination" : [ "obj-10", 0 ],
					"hidden" : 0,
					"midpoints" : [ 234.5, 204.5, 249.5, 204.5 ]
				}

			}
, 			{
				"patchline" : 				{
					"source" : [ "obj-8", 0 ],
					"destination" : [ "obj-10", 1 ],
					"hidden" : 0,
					"midpoints" : [ 279.5, 204.5, 263.0, 204.5 ]
				}

			}
, 			{
				"patchline" : 				{
					"source" : [ "obj-10", 0 ],
					"destination" : [ "obj-2", 1 ],
					"hidden" : 0,
					"midpoints" : [ 249.5, 328.0, 134.5, 328.0 ]
				}

			}
, 			{
				"patchline" : 				{
					"source" : [ "obj-3", 0 ],
					"destination" : [ "obj-5", 1 ],
					"hidden" : 0,
					"midpoints" : [ 189.5, 156.0, 98.0, 156.0 ]
				}

			}
, 			{
				"patchline" : 				{
					"source" : [ "obj-3", 0 ],
					"destination" : [ "obj-7", 1 ],
					"hidden" : 0,
					"midpoints" : [ 189.5, 137.0, 248.0, 137.0 ]
				}

			}
, 			{
				"patchline" : 				{
					"source" : [ "obj-4", 0 ],
					"destination" : [ "obj-6", 1 ],
					"hidden" : 0,
					"midpoints" : [ 309.5, 133.0, 143.0, 133.0 ]
				}

			}
, 			{
				"patchline" : 				{
					"source" : [ "obj-4", 0 ],
					"destination" : [ "obj-8", 1 ],
					"hidden" : 0,
					"midpoints" : [ 309.5, 137.0, 293.0, 137.0 ]
				}

			}
, 			{
				"patchline" : 				{
					"source" : [ "obj-36", 0 ],
					"destination" : [ "obj-3", 0 ],
					"hidden" : 0,
					"midpoints" : [ 444.5, 160.0, 421.0, 160.0, 421.0, 52.0, 189.5, 52.0 ]
				}

			}
, 			{
				"patchline" : 				{
					"source" : [ "obj-37", 0 ],
					"destination" : [ "obj-4", 0 ],
					"hidden" : 0,
					"midpoints" : [ 549.5, 164.0, 418.0, 164.0, 418.0, 75.0, 309.5, 75.0 ]
				}

			}
 ]
	}

}
